<svg xmlns="http://www.w3.org/2000/svg" viewBox="529 331 437.614 426.278">
  <defs>
    <style>
      .cls-1 {
        fill: #465975;
      }
    </style>
  </defs>
  <path id="Exclusion_1" data-name="Exclusion 1" class="cls-1" d="M437.614,448.278H0V22H437.614V448.277ZM218.139,292.985h0c7.949,7.649,14.907,13.96,20.679,18.758a94.976,94.976,0,0,0,14.125,10.17,67.554,67.554,0,0,0,18.758,6.78,114.882,114.882,0,0,0,23.73,2.26,83.679,83.679,0,0,0,12.656-.9c3.886-.6,7.84-1.358,11.752-2.26a86.113,86.113,0,0,0,19.888-8.136,57.718,57.718,0,0,0,9.1-8.023,45.807,45.807,0,0,0,6.5-9.153,43.1,43.1,0,0,0,3.9-10.283,49.063,49.063,0,0,0,1.3-11.413,58.41,58.41,0,0,0-3.729-20.114A87.166,87.166,0,0,0,345.6,240.1a122.49,122.49,0,0,0-15.82-18.193,91.944,91.944,0,0,0-17.628-12.994l12.656-1.356,10.4-.452h9.04a12.815,12.815,0,0,0,8.362-2.6,13.425,13.425,0,0,0,4.294-7.8l.452-18.985V172.3c0-8.4-.912-13.874-2.712-16.272-1.5-2.1-4.009-3.7-7.458-4.747A47,47,0,0,0,333.85,149.7a41.4,41.4,0,0,0-13.334,2.147,42.273,42.273,0,0,0-11.979,6.442l-17.176-4.973-7.684-1.808h-15.82a127.817,127.817,0,0,0-16.922,1.074,95.791,95.791,0,0,0-15.057,3.221,75.877,75.877,0,0,0-13.193,5.368,66.017,66.017,0,0,0-11.328,7.515,75.081,75.081,0,0,0-10.679-9.1,65.185,65.185,0,0,0-11.7-6.5,64,64,0,0,0-12.712-3.9,71.361,71.361,0,0,0-13.729-1.3l-23.5,3.163-11.3,2.26-2.712-3.163c-.75-1.2-2.879-2.112-6.328-2.712a89.688,89.688,0,0,0-14.464-.9,45.41,45.41,0,0,0-16.724,2.712,11.148,11.148,0,0,0-5.086,3.729,9.7,9.7,0,0,0-1.7,5.763v34.8a20.179,20.179,0,0,0,1.413,8.136,8.783,8.783,0,0,0,4.238,4.52c3.749,1.8,9.757,2.713,17.854,2.713,6.3,0,11.431-.684,15.255-2.034s6.447-3.4,7.8-6.1a78.67,78.67,0,0,1,13.108-15.933,156.673,156.673,0,0,1,20.34-16.159l9.491,11.752,2.713,5.875a13.014,13.014,0,0,1-3.729,4.294,31.942,31.942,0,0,1-6.667,3.842l-10.4,4.521L139.49,205.3l-17.627,6.78L73.95,230.157l-10.4,2.26a18.964,18.964,0,0,0-6.78,3.729A6.581,6.581,0,0,0,54.514,241a16.758,16.758,0,0,0,1.921,5.2,7.608,7.608,0,0,0,3.051,2.938l9.492,5.424-1.808,3.616a49.727,49.727,0,0,0-3.164,18.08A47.335,47.335,0,0,0,67.509,294a64.132,64.132,0,0,0,10.509,17.063,48.521,48.521,0,0,0,9.916,8.7,58.2,58.2,0,0,0,12.571,6.215,81.164,81.164,0,0,0,15.227,3.729,121.2,121.2,0,0,0,17.882,1.243,131.744,131.744,0,0,0,28.476-2.825,75.3,75.3,0,0,0,22.148-8.475l33.9-26.668Zm76.84,15.368a16.768,16.768,0,0,1-7.6-2.119,43.052,43.052,0,0,1-8.786-6.356c-6.223-5.623-13.333-14.177-21.131-25.425s-15.059-19.8-21.583-25.425a43.3,43.3,0,0,0-9.351-6.356,19.6,19.6,0,0,0-8.39-2.119,28.887,28.887,0,0,0-7.854,1.1,34.48,34.48,0,0,0-7.74,3.305A58.7,58.7,0,0,0,187.4,258.181l-24.86,32.544a71.79,71.79,0,0,1-14.012,13.221c-4.349,2.924-8.455,4.407-12.2,4.407a34.385,34.385,0,0,1-13.108-7.683,39.752,39.752,0,0,1-8.136-11.3,28.939,28.939,0,0,1-2.712-12.2,35.147,35.147,0,0,1,1.977-11.639,41.269,41.269,0,0,1,5.932-10.961,61.68,61.68,0,0,1,9.887-10.283,101.431,101.431,0,0,1,13.842-9.605l34.352-15.367,20.34-9.492,7.232-4.52a140.117,140.117,0,0,1,18.334,1.186,128.427,128.427,0,0,1,17.487,3.559,124.572,124.572,0,0,1,16.639,5.932,128.361,128.361,0,0,1,15.792,8.305,102.846,102.846,0,0,1,15.82,12.006,71.022,71.022,0,0,1,11.3,13.419,57.158,57.158,0,0,1,6.78,14.831,58.129,58.129,0,0,1,2.26,16.244c0,4.8-1.521,10.653-4.52,17.4a23.538,23.538,0,0,1-4.972,7.628A8.491,8.491,0,0,1,294.979,308.353Zm17.171-100.8-7.227-4.517a140.035,140.035,0,0,0-23.73-8.814c-9.448-2.7-20.625-5.209-33.222-7.458l8.136-8.136c4.2-3,7.7-4.521,10.4-4.521a36.685,36.685,0,0,1,15.933,3.616,48.7,48.7,0,0,1,14.351,10.848l8.136,9.04,7.228,9.94Z" transform="translate(529 309)"/>
</svg>
