<svg id="Symbol_3_1" data-name="Symbol 3 – 1" xmlns="http://www.w3.org/2000/svg" viewBox="242.6 331.2 219.65 96.998">
  <defs>
    <style>
      .cls-1 {
        fill: #465975;
      }

      .cls-2 {
        fill: #707070;
        font-size: 10px;
        font-family: SourceSansPro-Regular, Source Sans Pro;
      }
    </style>
  </defs>
  <g id="Symbol_2_1" data-name="Symbol 2 – 1">
    <g id="Symbol_1_1" data-name="Symbol 1 – 1" transform="translate(0 -3)">
      <path id="Path_1" data-name="Path 1" class="cls-1" d="M82.3-62.985a12.38,12.38,0,0,1-5.62,10.506,23.157,23.157,0,0,1-5.375,2.2q-1.588.366-3.176.611a22.527,22.527,0,0,1-3.421.244q-7.085,0-11.483-2.443-2.932-1.588-9.407-7.818l-9.162,7.208q-5.131,3.054-13.682,3.054-10.384,0-15.026-5.375a14.505,14.505,0,0,1-3.787-9.407,13.381,13.381,0,0,1,.855-4.887l.489-.977L.944-71.537A2.961,2.961,0,0,1-.4-73.736q0-1.466,2.443-2.321l2.81-.611L17.8-81.554l4.764-1.832,3.421-1.71,2.81-1.222a5.459,5.459,0,0,0,2.81-2.2l-.733-1.588-2.565-3.176q-6.475,4.4-9.04,8.674-1.1,2.2-6.23,2.2a11.814,11.814,0,0,1-4.825-.733q-1.527-.733-1.527-3.421v-9.407a2.6,2.6,0,0,1,1.832-2.565,12.217,12.217,0,0,1,4.52-.733q5.009,0,5.62.977l.733.855,3.054-.611L28.8-98.9a17.8,17.8,0,0,1,13.194,5.62q5.62-4.642,15.27-4.642h4.276l2.077.489,4.642,1.344A11.027,11.027,0,0,1,75.1-98.413q4.4,0,5.62,1.71.733.977.733,4.4v1.466l-.122,5.131a3.192,3.192,0,0,1-3.421,2.81H75.464l-2.81.122-3.421.366a28.344,28.344,0,0,1,9.04,8.429Q82.3-68.36,82.3-62.985ZM69.233-82.776l-1.955-2.688-2.2-2.443a11.021,11.021,0,0,0-8.185-3.909,5.313,5.313,0,0,0-2.81,1.222l-2.2,2.2Q62.148-86.563,67.279-84Zm-.489,19.79q0-9.162-9.773-15.27a34.407,34.407,0,0,0-18.447-5.131L38.57-82.165l-5.5,2.565-9.284,4.154q-8.551,5.009-8.551,11.483a8.871,8.871,0,0,0,2.932,6.353,9.248,9.248,0,0,0,3.543,2.077q3.054,0,7.085-4.764l6.719-8.8q4.031-4.764,8.307-4.764T54.451-64.7q6.353,9.162,10.14,9.162,1.71,0,2.932-2.749A11.992,11.992,0,0,0,68.745-62.985Zm73.176-19.546q0,13.56-10.017,23.7a31.271,31.271,0,0,1-11.178,6.9A37.221,37.221,0,0,1,107.47-49.3q-11.728,0-15.393-10.14-1.71-5.375-1.71-15.637l.611-20.646.366-27.731,2.321-1.1,1.71-.244h1.955l2.443.122a6.615,6.615,0,0,1,3.3,1.222l.489,27.731a24.982,24.982,0,0,1,6.108-2.688,77.171,77.171,0,0,1,11.483-.611Q141.92-99.023,141.921-82.531Zm-12.216.489a16.614,16.614,0,0,0-1.955-7.7,6.27,6.27,0,0,0-5.864-3.787,15.359,15.359,0,0,0-3.3.244l-3.665,1.1a19.369,19.369,0,0,0-6.108,3.176q-4.154,3.421-5.253,5.864l-.733,2.932-.489,2.688-.122,3.665q0,9.284,3.054,14.66l.855,1.344a10.346,10.346,0,0,0,2.321,2.321q2.565,0,6.841-2.81a21.808,21.808,0,0,0,5.986-4.642Q129.7-72.148,129.7-82.043Zm43.612-5.864h12.339l1.832-.244,2.443-.244q5.375,0,5.375,4.154-18.569,13.927-18.569,20.89,0,4.887,6.841,7.941a30.539,30.539,0,0,0,8.185,1.466q9.9,0,9.9-13.682l-.122-5.131-.489-8.307q0-5.253-2.443-8.185-2.932-3.543-8.429-3.543a31.147,31.147,0,0,0-16.065,4.764,40.612,40.612,0,0,0-12.888,11.85,31.533,31.533,0,0,0-4.276,16.614,26.284,26.284,0,0,0,6.169,16.92q6.169,7.635,15.209,7.635a36.279,36.279,0,0,0,15.026-3.421,33.416,33.416,0,0,0,4.581-2.2q2.871-1.588,7.024-4.031,5.864-3.421,7.941-3.421h2.443l2.565.611a2.244,2.244,0,0,1,1.344,1.588q0,2.443-7.208,7.452a77.363,77.363,0,0,1-9.407,5.62,20.491,20.491,0,0,1-2.871,1.222q-2.016.733-4.581,1.588a79.369,79.369,0,0,1-8.8,1.832l-5.253.366a16.546,16.546,0,0,1-4.764-.489q-13.927-3.665-21.5-9.9-9.407-7.7-9.407-20.89,0-17.225,13.8-28.831,12.949-10.75,30.663-10.75,10.506,0,16.981,4.092t6.475,13.743l.122,6.841V-70.8l.244,3.543q0,10.017-3.909,14.66t-14.171,4.642q-14.537,0-24.311-5.131-6.841-3.665-6.841-9.773,0-5.375,4.52-10.75a54.879,54.879,0,0,1,8.674-8.185l-10.384-1.1,1.71-1.832Z" transform="translate(243 459)"/>
    </g>
    <text id="Simplifying_Data_Manipulation_" data-name="Simplifying Data Manipulation " class="cls-2" transform="translate(243 425)"><tspan x="0" y="0">Simplifying Data Manipulation </tspan></text>
  </g>
</svg>
